<svg data-v-423bf9ae="" xmlns="http://www.w3.org/2000/svg" viewBox="0 0 400 112" class="iconLeft"><!----><!----><!----><g data-v-423bf9ae="" id="71089784-1a93-485d-89b4-a34dfa31c3c2" fill="white" transform="matrix(4.573171104014766,0,0,4.573171104014766,125.81505012841902,8.725175060238605)"><path d="M3.27 10.39L6.10 13.52L7.52 13.52L4.05 9.65L7.21 6.69L5.69 6.69L2.28 10.02L2.28 3.68L1.16 3.68L1.16 13.52L2.28 13.52L2.28 11.31ZM14.30 9.87C14.30 8.00 13.26 6.55 11.16 6.55C9.23 6.55 7.86 8.20 7.86 10.14C7.86 12.09 9.35 13.73 11.43 13.73C12.50 13.73 13.21 13.26 13.48 12.99L13.48 11.85C13.03 12.18 12.41 12.63 11.43 12.63C10.12 12.63 9.21 11.69 9.05 10.54L14.30 10.54ZM9.08 9.58C9.27 8.50 10.04 7.64 11.16 7.64C12.11 7.64 13.06 8.26 13.19 9.58ZM22.59 6.69L21.25 6.69L18.92 11.72L16.53 6.69L15.19 6.69L18.21 13.11L16.26 16.80L17.55 16.80ZM25.99 6.55C24.53 6.55 23.58 7.41 23.58 8.57C23.58 9.35 23.83 9.98 24.90 10.38L25.91 10.75C26.55 10.98 26.89 11.20 26.89 11.63C26.89 12.21 26.36 12.63 25.50 12.63C24.81 12.63 23.86 12.21 23.47 11.92L23.47 13.13C23.79 13.36 24.77 13.73 25.58 13.73C27.04 13.73 28.10 12.80 28.10 11.63C28.10 10.86 27.66 10.25 26.77 9.94L25.62 9.53C24.99 9.31 24.79 8.91 24.79 8.57C24.79 8.13 25.21 7.64 26.07 7.64C26.76 7.64 27.48 7.98 27.86 8.27L27.86 7.07C27.55 6.84 26.80 6.55 25.99 6.55ZM33.28 6.55C32.24 6.55 31.40 7.12 30.93 7.85L30.93 6.69L29.80 6.69L29.80 16.80L30.93 16.80L30.93 12.61C31.51 13.26 32.39 13.73 33.17 13.73C35.04 13.73 36.46 12.25 36.46 9.99C36.46 7.92 35.04 6.55 33.28 6.55ZM33.10 7.64C34.43 7.64 35.30 8.67 35.30 9.99C35.30 11.32 34.43 12.63 32.96 12.63C32.13 12.63 31.51 12.14 30.94 11.43L30.93 10.12C30.91 8.65 31.86 7.64 33.10 7.64ZM41.13 6.55C39.25 6.55 37.83 7.96 37.83 10.21C37.83 12.29 39.25 13.73 41.02 13.73C42.05 13.73 42.89 13.08 43.37 12.36L43.37 13.52L44.49 13.52L44.49 6.69L43.37 6.69L43.37 7.60C42.78 6.95 41.90 6.55 41.13 6.55ZM41.33 7.64C42.16 7.64 42.78 8.07 43.35 8.78L43.37 10.09C43.38 11.55 42.44 12.63 41.19 12.63C39.87 12.63 38.99 11.54 38.99 10.21C38.99 8.89 39.87 7.64 41.33 7.64ZM49.90 6.55C47.82 6.55 46.33 8.20 46.33 10.14C46.33 12.09 47.82 13.73 49.90 13.73C50.90 13.73 51.68 13.33 51.95 13.06L51.95 11.92C51.43 12.30 50.82 12.63 49.90 12.63C48.44 12.63 47.50 11.47 47.50 10.14C47.50 8.82 48.44 7.64 49.90 7.64C50.82 7.64 51.43 7.97 51.95 8.35L51.95 7.22C51.68 6.96 50.90 6.55 49.90 6.55ZM59.76 9.87C59.76 8.00 58.72 6.55 56.62 6.55C54.69 6.55 53.32 8.20 53.32 10.14C53.32 12.09 54.81 13.73 56.89 13.73C57.96 13.73 58.67 13.26 58.94 12.99L58.94 11.85C58.49 12.18 57.87 12.63 56.89 12.63C55.58 12.63 54.67 11.69 54.51 10.54L59.76 10.54ZM54.54 9.58C54.73 8.50 55.49 7.64 56.62 7.64C57.57 7.64 58.52 8.26 58.65 9.58Z"></path></g><!----><g data-v-423bf9ae="" id="847bcfbe-217b-43f4-ab00-be8d4dd86984" transform="matrix(1.1111000061035157,0,0,1.1111000061035157,0.4340900923052686,0.44548204383754353)" stroke="none" fill="white"><path d="M27.159 78.945c7.414-3.59 18.067-11.203 29.313-22.434 8.445-8.435 15.599-17.303 20.143-24.972a56.044 56.044 0 0 0 2.458-4.595C72.288 18.454 61.855 13 50.167 13c-20.402 0-37 16.598-37 37 0 11.711 5.475 22.16 13.992 28.945zM50.543 86.99c20.107-.202 36.42-16.52 36.614-36.63-4.851 6.591-10.606 13.281-17.084 19.75-6.396 6.389-13.01 12.075-19.53 16.88z"></path><path d="M96.963 3.096c-6.135-6.127-20.19-2.853-36.331 7.128 4.798 1.168 9.25 3.151 13.203 5.914 4.457-1.828 8.616-1.82 10.253-.185 2.379 2.375 1.308 7.779-2.37 14.75l-.028-.048c-4.305 8.177-12.211 18.521-22.391 28.688C49.24 69.388 39.006 77.218 30.863 81.552l.026.016c-7.085 3.766-12.582 4.88-14.985 2.479-1.888-1.885-1.61-5.684.533-10.845-2.77-3.974-4.759-8.419-5.916-13.192C.476 76.178-3.015 90.867 3.031 96.905c9.555 9.542 38.331-3.721 64.269-29.625 25.938-25.903 39.219-54.642 29.663-64.184z"></path></g><!----></svg>